<svg xmlns="http://www.w3.org/2000/svg" width="700" height="700" viewBox="0 0 30 24"><style>@media (prefers-color-scheme:dark){.a{fill:#fff}}</style><path fill="#0202ea" d="M26.175 11.627c-.561-.561-1.429-.561-2.015-.051l-7.552 7.551c-.434.434-1.122.434-1.53 0-.434-.433-.434-1.122 0-1.53l2.704-2.704v-.026l2.806-2.806a1.478 1.478 0 000-2.067 1.478 1.478 0 00-2.066 0l-1.888 1.888c-.434.434-1.097.434-1.531 0s-.434-1.097 0-1.53l6.53-6.531c.562-.562.562-1.506 0-2.067s-1.504-.561-2.065 0l-3.24 3.164a1.48 1.48 0 01-1.021.433c-.357 0-.714-.127-.995-.382l-3.036-3.036a6.605 6.605 0 00-9.337 0A6.562 6.562 0 000 6.6c0 1.761.69 3.42 1.94 4.67l12.246 12.246c0 .013.006.019.013.025s.013.013.013.026c.28.28.663.434 1.046.434s.74-.154 1.046-.434l9.847-9.848a1.486 1.486 0 00.026-2.092z" class="a"/><path fill="#0202ea" d="M21.43 9.127c.28.28.663.433 1.046.433s.74-.153 1.046-.433l5.255-5.256a1.478 1.478 0 000-2.066 1.478 1.478 0 00-2.066 0L21.455 7.06a1.412 1.412 0 00-.025 2.067zm7.908.433a1.454 1.454 0 10-2.908 0 1.454 1.454 0 002.908 0z" class="a"/></svg>
