<svg xmlns="http://www.w3.org/2000/svg" viewBox="0 8.649999618530273 285.75 102.49999237060547" data-asc="0.965" width="285.75" height="102.49999237060547"><defs/><g fill="#f4cd0b"><g transform="translate(0, 0)"><path d="M5.15 48.60Q2.65 48.60 1.32 47.08Q0 45.55 0 41.55Q0 39.65 0.42 37Q0.85 34.35 1.63 31.35Q2.40 28.35 3.42 25.35Q4.45 22.35 5.65 19.75Q7.20 16.40 8.83 14.57Q10.45 12.75 12.23 12.02Q14.00 11.30 16 11.30Q19.05 11.30 21.55 13.13Q24.05 14.95 25.90 19.50Q27.05 22.30 28.00 25.82Q28.95 29.35 29.53 33.17Q30.10 37 30.10 40.75Q30.10 44.80 28.45 46.70Q26.80 48.60 23.85 48.60Q21.30 48.60 19.83 47.08Q18.35 45.55 18 42.05Q17.80 39.80 17.80 37.40Q17.80 35 18 32.80L20.60 36.55Q19.20 37 17.13 37.13Q15.05 37.25 12.83 37.02Q10.60 36.80 8.65 36.20L12.65 32.90Q12.70 35.35 12.40 37.67Q12.10 40 11.70 41.90Q11.35 44.10 10.58 45.60Q9.80 47.10 8.48 47.85Q7.15 48.60 5.15 48.60M15.70 29.85Q17.95 29.85 19.18 28.88Q20.40 27.90 20.40 26.25Q20.40 25.45 20.05 24.42Q19.70 23.40 19.10 22.52Q18.50 21.65 17.68 21.05Q16.85 20.45 15.80 20.45Q14.75 20.45 13.93 21.07Q13.10 21.70 12.48 22.63Q11.85 23.55 11.50 24.63Q11.15 25.70 11.15 26.65Q11.15 28.05 12.35 28.95Q13.55 29.85 15.70 29.85ZM39.50 48.35Q37.40 48.35 36.13 47.50Q34.85 46.65 34.10 44.65Q33.30 42.45 32.92 38.65Q32.55 34.85 32.55 29.45Q32.55 26.20 32.83 22.85Q33.10 19.50 33.58 16.72Q34.05 13.95 34.60 12.55Q35.45 10.45 36.50 9.57Q37.55 8.70 39.05 8.70Q40.65 8.70 41.70 9.60Q42.75 10.50 43.25 12.60Q43.65 14.25 43.88 16.57Q44.10 18.90 44.10 21.50Q44.10 24.60 43.75 28Q43.40 31.40 42.83 34.67Q42.25 37.95 41.45 40.70L37.70 40.85Q39.10 39.65 40.85 38.98Q42.60 38.30 44.10 38.30Q45.95 38.30 46.95 39.23Q47.95 40.15 47.95 42.10Q47.95 43.75 46.80 45.17Q45.65 46.60 43.75 47.48Q41.85 48.35 39.50 48.35ZM54.95 17.25Q56.85 17.25 58.02 18.90Q59.20 20.55 59.75 24.10L58.70 24.75Q59.60 21.25 62.05 19.40Q64.50 17.55 67.85 17.55Q71 17.55 73.45 19.15Q75.90 20.75 77.30 23.97Q78.70 27.20 78.70 32.05Q78.70 39.90 75.80 43.63Q72.90 47.35 68 47.35Q64.60 47.35 62.65 45.85Q60.70 44.35 59.95 42.20L60.55 41.90Q60.95 44.75 61.23 47.52Q61.50 50.30 61.50 52.40Q61.50 54.85 60.33 56.58Q59.15 58.30 56.60 58.30Q54.25 58.30 53 56.73Q51.75 55.15 51.25 52.40Q50.95 50.35 50.65 47.10Q50.35 43.85 50.17 40.08Q50 36.30 50 32.65Q50 29 50.27 25.80Q50.55 22.60 50.95 20.60Q51.40 18.90 52.42 18.07Q53.45 17.25 54.95 17.25M64.40 25.30Q62.30 25.30 61.08 27.35Q59.85 29.40 59.85 32.65Q59.85 36 61.08 37.65Q62.30 39.30 64.30 39.30Q66.70 39.30 67.72 37.42Q68.75 35.55 68.75 32.60Q68.75 28.80 67.45 27.05Q66.15 25.30 64.40 25.30ZM88.50 8.65Q91 8.65 91.95 10.13Q92.90 11.60 92.90 14.50Q92.90 16.60 92.63 19.30Q92.35 22 91.85 24.15L91.55 24.15Q93.15 21.60 95.58 20Q98 18.40 100.75 18.40Q103.40 18.40 105.47 19.70Q107.55 21 108.90 23.70Q110.05 26 110.58 29.15Q111.10 32.30 111.10 35.15Q111.10 39.80 110.28 42.55Q109.45 45.30 108 46.52Q106.55 47.75 104.60 47.75Q99.90 47.75 99.90 41.75Q99.90 39.45 100.17 37.02Q100.45 34.60 100.45 32.60Q100.45 30.10 99.63 28.88Q98.80 27.65 97.30 27.65Q95.50 27.65 94.38 29.35Q93.25 31.05 93.25 34.05Q93.25 35.85 93.53 37.83Q93.80 39.80 93.80 42.15Q93.80 45.65 92.35 47.17Q90.90 48.70 88.65 48.70Q87.15 48.70 85.95 48.23Q84.75 47.75 83.92 46.27Q83.10 44.80 82.65 41.90Q82.35 40.10 82.10 37.65Q81.85 35.20 81.67 32.50Q81.50 29.80 81.38 27.27Q81.25 24.75 81.25 22.75Q81.25 15.40 83.13 12.02Q85 8.65 88.50 8.65ZM137.60 48.75Q135 48.75 134.15 47.42Q133.30 46.10 133.30 43.20L134.05 43.45Q131.35 48.90 123.65 48.90Q120.15 48.90 117.85 47.65Q115.55 46.40 114.42 44.38Q113.30 42.35 113.30 39.90Q113.30 35.70 116.35 33.25Q119.40 30.80 124.45 30.80Q127.60 30.80 129.97 31.75Q132.35 32.70 133.95 34.40L132.55 34.30Q132.45 30.10 130.90 28.32Q129.35 26.55 126.45 26.55Q125.05 26.55 123.60 26.97Q122.15 27.40 120.72 27.85Q119.30 28.30 117.85 28.30Q116.05 28.30 115.05 27.30Q114.05 26.30 114.05 24.70Q114.05 22.50 115.95 20.75Q117.85 19 120.97 17.97Q124.10 16.95 127.75 16.95Q132.45 16.95 135.88 18.80Q139.30 20.65 140.75 24.45Q141.90 27.30 142.40 30.88Q142.90 34.45 142.90 38.50Q142.90 42.55 142.35 44.77Q141.80 47 140.63 47.88Q139.45 48.75 137.60 48.75M127.45 41.85Q128.65 41.85 129.82 41.50Q131 41.15 131.82 40.45Q132.65 39.75 132.65 38.70Q132.65 37.75 132 37.13Q131.35 36.50 130.25 36.23Q129.15 35.95 127.90 35.95Q125.75 35.95 124.47 36.80Q123.20 37.65 123.20 39Q123.20 40.30 124.35 41.08Q125.50 41.85 127.45 41.85ZM145.90 27.10Q145.90 21.55 147.22 19.10Q148.55 16.65 150.90 16.65Q152.55 16.65 153.53 17.72Q154.50 18.80 154.95 20.38Q155.40 21.95 155.40 23.55L155.15 23.45Q156 20.75 157.70 18.80Q159.40 16.85 161.90 16.85Q165.05 16.85 166.58 19.38Q168.10 21.90 168.10 25.65Q168.10 30.65 166.63 32.65Q165.15 34.65 162.75 34.65Q160.90 34.65 160.05 33.52Q159.20 32.40 159.40 30Q159.50 27.95 159.20 27.20Q158.90 26.45 158.25 26.45Q157.40 26.45 156.95 27.45Q156.50 28.45 156.50 30.10Q156.50 31.10 156.75 32.63Q157 34.15 157.30 35.95Q157.60 37.75 157.85 39.52Q158.10 41.30 158.10 42.80Q158.10 45.80 156.75 47.08Q155.40 48.35 153 48.35Q150.65 48.35 149.20 47.10Q147.75 45.85 147.20 43Q146.90 41.05 146.58 38.25Q146.25 35.45 146.08 32.45Q145.90 29.45 145.90 27.10ZM185.95 48.65Q179.95 48.65 176.40 47Q172.85 45.35 171.25 42.25Q169.65 39.15 169.65 34.85Q169.65 29.40 171.88 25.57Q174.10 21.75 177.98 19.70Q181.85 17.65 186.75 17.65Q192.60 17.65 195.33 20.05Q198.05 22.45 198.05 26.35Q198.05 29.40 196.38 31.68Q194.70 33.95 191.73 35.17Q188.75 36.40 184.90 36.40Q183.00 36.40 181.23 36.08Q179.45 35.75 178.05 35.20L179.25 32.55Q179.10 33.75 179.10 34.95Q179.10 37.45 180.83 38.50Q182.55 39.55 185.65 39.55Q188.45 39.55 190.35 38.98Q192.25 38.40 193.68 37.85Q195.10 37.30 196.40 37.30Q197.25 37.30 198.10 37.73Q198.95 38.15 199.53 39.02Q200.10 39.90 200.10 41.35Q200.10 43.40 198.50 45.05Q196.90 46.70 193.75 47.67Q190.60 48.65 185.95 48.65M183.05 31.45Q185.75 31.45 187.60 30.20Q189.45 28.95 189.45 27.15Q189.45 25.85 188.55 25.05Q187.65 24.25 186.00 24.25Q184.25 24.25 182.75 24.92Q181.25 25.60 180.35 26.65Q179.45 27.70 179.45 29Q179.45 30.20 180.40 30.82Q181.35 31.45 183.05 31.45ZM210.70 18.15L210.05 18.15Q209.85 15.95 210.20 13.98Q210.55 12 211.75 10.77Q212.95 9.55 215.15 9.55Q217.40 9.55 218.43 10.63Q219.45 11.70 219.45 13.65Q219.45 16.40 218.25 18.35L217.70 18.25Q219.70 17.30 222.10 17.30Q224.60 17.30 226.10 18.42Q227.60 19.55 227.60 22.25Q227.60 24.75 225.88 26.07Q224.15 27.40 221.55 27.40Q220.50 27.40 219.33 27.27Q218.15 27.15 217.05 26.85L217.45 26.15Q218.05 27.75 218.60 29.77Q219.15 31.80 219.60 33.95Q220.05 36.10 220.30 38.17Q220.55 40.25 220.55 41.85Q220.55 45.05 219.13 46.90Q217.70 48.75 214.75 48.75Q212.85 48.75 211.63 47.98Q210.40 47.20 209.70 45.90Q209.00 44.60 208.73 42.90Q208.45 41.20 208.45 39.40Q208.45 37.55 208.70 35.27Q208.95 33 209.48 30.52Q210.00 28.05 210.65 25.80L211.30 26.95Q209.45 28.25 206.70 28.25Q204.05 28.25 202.58 27Q201.10 25.75 201.10 23.20Q201.10 20.50 202.70 19.02Q204.30 17.55 207.05 17.55Q208.10 17.55 209.05 17.72Q210.00 17.90 210.70 18.15ZM238.10 18.15L237.45 18.15Q237.25 15.95 237.60 13.98Q237.95 12 239.15 10.77Q240.35 9.55 242.55 9.55Q244.80 9.55 245.83 10.63Q246.85 11.70 246.85 13.65Q246.85 16.40 245.65 18.35L245.10 18.25Q247.10 17.30 249.50 17.30Q252.00 17.30 253.50 18.42Q255.00 19.55 255.00 22.25Q255.00 24.75 253.28 26.07Q251.55 27.40 248.95 27.40Q247.90 27.40 246.73 27.27Q245.55 27.15 244.45 26.85L244.85 26.15Q245.45 27.75 246.00 29.77Q246.55 31.80 247.00 33.95Q247.45 36.10 247.70 38.17Q247.95 40.25 247.95 41.85Q247.95 45.05 246.53 46.90Q245.10 48.75 242.15 48.75Q240.25 48.75 239.03 47.98Q237.80 47.20 237.10 45.90Q236.40 44.60 236.13 42.90Q235.85 41.20 235.85 39.40Q235.85 37.55 236.10 35.27Q236.35 33 236.88 30.52Q237.40 28.05 238.05 25.80L238.70 26.95Q236.85 28.25 234.10 28.25Q231.45 28.25 229.98 27Q228.50 25.75 228.50 23.20Q228.50 20.50 230.10 19.02Q231.70 17.55 234.45 17.55Q235.50 17.55 236.45 17.72Q237.40 17.90 238.10 18.15ZM280.45 48.75Q277.85 48.75 277.00 47.42Q276.15 46.10 276.15 43.20L276.90 43.45Q274.20 48.90 266.50 48.90Q263.00 48.90 260.70 47.65Q258.40 46.40 257.28 44.38Q256.15 42.35 256.15 39.90Q256.15 35.70 259.20 33.25Q262.25 30.80 267.30 30.80Q270.45 30.80 272.83 31.75Q275.20 32.70 276.80 34.40L275.40 34.30Q275.30 30.10 273.75 28.32Q272.20 26.55 269.30 26.55Q267.90 26.55 266.45 26.97Q265.00 27.40 263.58 27.85Q262.15 28.30 260.70 28.30Q258.90 28.30 257.90 27.30Q256.90 26.30 256.90 24.70Q256.90 22.50 258.80 20.75Q260.70 19 263.83 17.97Q266.95 16.95 270.60 16.95Q275.30 16.95 278.73 18.80Q282.15 20.65 283.60 24.45Q284.75 27.30 285.25 30.88Q285.75 34.45 285.75 38.50Q285.75 42.55 285.20 44.77Q284.65 47 283.48 47.88Q282.30 48.75 280.45 48.75M270.30 41.85Q271.50 41.85 272.68 41.50Q273.85 41.15 274.68 40.45Q275.50 39.75 275.50 38.70Q275.50 37.75 274.85 37.13Q274.20 36.50 273.10 36.23Q272.00 35.95 270.75 35.95Q268.60 35.95 267.33 36.80Q266.05 37.65 266.05 39Q266.05 40.30 267.20 41.08Q268.35 41.85 270.30 41.85Z"/></g><g transform="translate(0, 61.75)"><path d="M9.40 49.40Q6 49.40 4.13 48.85Q2.25 48.30 1.55 47.30Q0.85 46.30 0.80 44.95Q0.75 42.85 2.40 41.42Q4.05 40 8.35 39.60L6.75 41.40Q6.30 39.35 6.08 36.58Q5.85 33.80 5.90 30.82Q5.95 27.85 6.20 25.15Q6.45 22.45 6.95 20.55L12.65 20.65Q11.60 21.10 9.98 21.42Q8.35 21.75 6.65 21.75Q3.25 21.75 1.63 20.67Q0 19.60 0 17.70Q0 14.80 2.83 13.15Q5.65 11.50 11.55 11.50Q18.65 11.50 23.55 13.67Q28.45 15.85 31.00 19.72Q33.55 23.60 33.55 28.75Q33.55 33.25 31.82 37.02Q30.10 40.80 26.90 43.58Q23.70 46.35 19.28 47.88Q14.85 49.40 9.40 49.40M17 37.75Q18.45 37.75 19.75 36.83Q21.05 35.90 21.88 34.17Q22.70 32.45 22.70 30Q22.70 28.05 22.18 26.52Q21.65 25 20.78 23.92Q19.90 22.85 18.80 22.27Q17.70 21.70 16.55 21.70Q15.75 21.70 15.30 22.40Q14.85 23.10 14.68 24.75Q14.50 26.40 14.50 29.15Q14.50 33.55 15.03 35.65Q15.55 37.75 17 37.75ZM52.05 48.65Q46.05 48.65 42.50 47Q38.95 45.35 37.35 42.25Q35.75 39.15 35.75 34.85Q35.75 29.40 37.97 25.57Q40.20 21.75 44.07 19.70Q47.95 17.65 52.85 17.65Q58.70 17.65 61.42 20.05Q64.15 22.45 64.15 26.35Q64.15 29.40 62.47 31.68Q60.80 33.95 57.82 35.17Q54.85 36.40 51 36.40Q49.10 36.40 47.32 36.08Q45.55 35.75 44.15 35.20L45.35 32.55Q45.20 33.75 45.20 34.95Q45.20 37.45 46.92 38.50Q48.65 39.55 51.75 39.55Q54.55 39.55 56.45 38.98Q58.35 38.40 59.77 37.85Q61.20 37.30 62.50 37.30Q63.35 37.30 64.20 37.73Q65.05 38.15 65.63 39.02Q66.20 39.90 66.20 41.35Q66.20 43.40 64.60 45.05Q63 46.70 59.85 47.67Q56.70 48.65 52.05 48.65M49.15 31.45Q51.85 31.45 53.70 30.20Q55.55 28.95 55.55 27.15Q55.55 25.85 54.65 25.05Q53.75 24.25 52.10 24.25Q50.35 24.25 48.85 24.92Q47.35 25.60 46.45 26.65Q45.55 27.70 45.55 29Q45.55 30.20 46.50 30.82Q47.45 31.45 49.15 31.45ZM74.90 17.15Q77.20 17.15 78.08 18.45Q78.95 19.75 78.95 22.30Q78.95 22.90 78.88 23.57Q78.80 24.25 78.65 24.80L78.55 23.80Q79.70 20.55 82.15 18.72Q84.60 16.90 87.40 16.90Q90.70 16.90 92.90 18.75Q95.10 20.60 96.20 23.95Q97.30 27.30 97.30 31.85Q97.30 34.30 97.10 36.65Q96.90 39 96.55 40.95Q96.20 42.90 95.65 44.15Q94.90 45.95 93.55 46.85Q92.20 47.75 90.35 47.75Q88.30 47.75 87.20 46.38Q86.10 45 86.10 42.55Q86.10 41 86.28 38.85Q86.45 36.70 86.60 34.58Q86.75 32.45 86.75 30.95Q86.75 26.15 83.75 26.15Q82.15 26.15 81.03 27.67Q79.90 29.20 79.50 31.95Q79.35 33.20 79.30 35.05Q79.25 36.90 79.20 38.73Q79.15 40.55 79.05 41.75Q78.75 45.20 77.42 46.70Q76.10 48.20 73.80 48.20Q71.05 48.20 69.65 46.48Q68.25 44.75 68.25 40.65Q68.25 38.55 68.35 35.95Q68.45 33.35 68.63 30.72Q68.80 28.10 69.05 25.95Q69.55 21.85 70.92 19.50Q72.30 17.15 74.90 17.15ZM108.90 18.15L108.25 18.15Q108.05 15.95 108.40 13.98Q108.75 12 109.95 10.77Q111.15 9.55 113.35 9.55Q115.60 9.55 116.63 10.63Q117.65 11.70 117.65 13.65Q117.65 16.40 116.45 18.35L115.90 18.25Q117.90 17.30 120.30 17.30Q122.80 17.30 124.30 18.42Q125.80 19.55 125.80 22.25Q125.80 24.75 124.07 26.07Q122.35 27.40 119.75 27.40Q118.70 27.40 117.52 27.27Q116.35 27.15 115.25 26.85L115.65 26.15Q116.25 27.75 116.80 29.77Q117.35 31.80 117.80 33.95Q118.25 36.10 118.50 38.17Q118.75 40.25 118.75 41.85Q118.75 45.05 117.32 46.90Q115.90 48.75 112.95 48.75Q111.05 48.75 109.82 47.98Q108.60 47.20 107.90 45.90Q107.20 44.60 106.92 42.90Q106.65 41.20 106.65 39.40Q106.65 37.55 106.90 35.27Q107.15 33 107.67 30.52Q108.20 28.05 108.85 25.80L109.50 26.95Q107.65 28.25 104.90 28.25Q102.25 28.25 100.77 27Q99.30 25.75 99.30 23.20Q99.30 20.50 100.90 19.02Q102.50 17.55 105.25 17.55Q106.30 17.55 107.25 17.72Q108.20 17.90 108.90 18.15ZM151.25 48.75Q148.65 48.75 147.80 47.42Q146.95 46.10 146.95 43.20L147.70 43.45Q145 48.90 137.30 48.90Q133.80 48.90 131.50 47.65Q129.20 46.40 128.07 44.38Q126.95 42.35 126.95 39.90Q126.95 35.70 130 33.25Q133.05 30.80 138.10 30.80Q141.25 30.80 143.63 31.75Q146 32.70 147.60 34.40L146.20 34.30Q146.10 30.10 144.55 28.32Q143 26.55 140.10 26.55Q138.70 26.55 137.25 26.97Q135.80 27.40 134.38 27.85Q132.95 28.30 131.50 28.30Q129.70 28.30 128.70 27.30Q127.70 26.30 127.70 24.70Q127.70 22.50 129.60 20.75Q131.50 19 134.63 17.97Q137.75 16.95 141.40 16.95Q146.10 16.95 149.53 18.80Q152.95 20.65 154.40 24.45Q155.55 27.30 156.05 30.88Q156.55 34.45 156.55 38.50Q156.55 42.55 156 44.77Q155.45 47 154.28 47.88Q153.10 48.75 151.25 48.75M141.10 41.85Q142.30 41.85 143.47 41.50Q144.65 41.15 145.47 40.45Q146.30 39.75 146.30 38.70Q146.30 37.75 145.65 37.13Q145 36.50 143.90 36.23Q142.80 35.95 141.55 35.95Q139.40 35.95 138.13 36.80Q136.85 37.65 136.85 39Q136.85 40.30 138 41.08Q139.15 41.85 141.10 41.85ZM166.50 48.35Q164.40 48.35 163.13 47.50Q161.85 46.65 161.10 44.65Q160.30 42.45 159.93 38.65Q159.55 34.85 159.55 29.45Q159.55 26.20 159.83 22.85Q160.10 19.50 160.58 16.72Q161.05 13.95 161.60 12.55Q162.45 10.45 163.50 9.57Q164.55 8.70 166.05 8.70Q167.65 8.70 168.70 9.60Q169.75 10.50 170.25 12.60Q170.65 14.25 170.88 16.57Q171.10 18.90 171.10 21.50Q171.10 24.60 170.75 28Q170.40 31.40 169.83 34.67Q169.25 37.95 168.45 40.70L164.70 40.85Q166.10 39.65 167.85 38.98Q169.60 38.30 171.10 38.30Q172.95 38.30 173.95 39.23Q174.95 40.15 174.95 42.10Q174.95 43.75 173.80 45.17Q172.65 46.60 170.75 47.48Q168.85 48.35 166.50 48.35Z"/></g></g></svg>